<?xml version="1.0" encoding="UTF-8"?>
<svg xmlns="http://www.w3.org/2000/svg" viewBox="0 0 720 360" width="720" height="360" role="img" aria-labelledby="title">
  <title>Tokens per investigation (deterministic substrate)</title>
  <desc>Generated by scripts/render_eval_charts.py — AiSOC eval harness.</desc>
  
  <rect width="720" height="360" fill="#ffffff"/>
  <text x="360.0" y="28.0" font-family="ui-sans-serif, system-ui, sans-serif" font-size="16" fill="#0f172a" text-anchor="middle" font-weight="bold">Tokens per investigation (deterministic substrate)</text>
  <text x="360.0" y="48.0" font-family="ui-sans-serif, system-ui, sans-serif" font-size="11" fill="#475569" text-anchor="middle" font-weight="normal">prompt + completion · estimator = 4 chars/token · system-prompt budget = 800 tokens</text>
  <line x1="88.0" y1="296.0" x2="688.0" y2="296.0" stroke="#e2e8f0" stroke-width="1.0"/>
  <text x="80.0" y="300.0" font-family="ui-sans-serif, system-ui, sans-serif" font-size="10" fill="#475569" text-anchor="end" font-weight="normal">0</text>
  <line x1="88.0" y1="238.0" x2="688.0" y2="238.0" stroke="#e2e8f0" stroke-width="1.0"/>
  <text x="80.0" y="242.0" font-family="ui-sans-serif, system-ui, sans-serif" font-size="10" fill="#475569" text-anchor="end" font-weight="normal">10</text>
  <line x1="88.0" y1="180.0" x2="688.0" y2="180.0" stroke="#e2e8f0" stroke-width="1.0"/>
  <text x="80.0" y="184.0" font-family="ui-sans-serif, system-ui, sans-serif" font-size="10" fill="#475569" text-anchor="end" font-weight="normal">19</text>
  <line x1="88.0" y1="122.0" x2="688.0" y2="122.0" stroke="#e2e8f0" stroke-width="1.0"/>
  <text x="80.0" y="126.0" font-family="ui-sans-serif, system-ui, sans-serif" font-size="10" fill="#475569" text-anchor="end" font-weight="normal">28</text>
  <line x1="88.0" y1="64.0" x2="688.0" y2="64.0" stroke="#e2e8f0" stroke-width="1.0"/>
  <text x="80.0" y="68.0" font-family="ui-sans-serif, system-ui, sans-serif" font-size="10" fill="#475569" text-anchor="end" font-weight="normal">38</text>
  <line x1="88.0" y1="296.0" x2="688.0" y2="296.0" stroke="#94a3b8" stroke-width="1.5"/>
  <rect x="89.0" y="277.7" width="28.0" height="18.3" fill="#3b82f6" fill-opacity="1.00"/>
  <text x="103.0" y="314.0" font-family="ui-sans-serif, system-ui, sans-serif" font-size="10" fill="#475569" text-anchor="middle" font-weight="normal">1.7k</text>
  <rect x="119.0" y="296.0" width="28.0" height="0.0" fill="#3b82f6" fill-opacity="1.00"/>
  <rect x="149.0" y="222.7" width="28.0" height="73.3" fill="#3b82f6" fill-opacity="1.00"/>
  <rect x="179.0" y="271.6" width="28.0" height="24.4" fill="#3b82f6" fill-opacity="1.00"/>
  <rect x="209.0" y="296.0" width="28.0" height="0.0" fill="#3b82f6" fill-opacity="1.00"/>
  <rect x="239.0" y="296.0" width="28.0" height="0.0" fill="#3b82f6" fill-opacity="1.00"/>
  <rect x="269.0" y="296.0" width="28.0" height="0.0" fill="#3b82f6" fill-opacity="1.00"/>
  <rect x="299.0" y="296.0" width="28.0" height="0.0" fill="#3b82f6" fill-opacity="1.00"/>
  <rect x="329.0" y="161.7" width="28.0" height="134.3" fill="#3b82f6" fill-opacity="1.00"/>
  <rect x="359.0" y="118.9" width="28.0" height="177.1" fill="#3b82f6" fill-opacity="1.00"/>
  <rect x="389.0" y="94.5" width="28.0" height="201.5" fill="#3b82f6" fill-opacity="1.00"/>
  <text x="403.0" y="314.0" font-family="ui-sans-serif, system-ui, sans-serif" font-size="10" fill="#475569" text-anchor="middle" font-weight="normal">2.1k</text>
  <rect x="419.0" y="265.5" width="28.0" height="30.5" fill="#3b82f6" fill-opacity="1.00"/>
  <rect x="449.0" y="271.6" width="28.0" height="24.4" fill="#3b82f6" fill-opacity="1.00"/>
  <rect x="479.0" y="296.0" width="28.0" height="0.0" fill="#3b82f6" fill-opacity="1.00"/>
  <rect x="509.0" y="296.0" width="28.0" height="0.0" fill="#3b82f6" fill-opacity="1.00"/>
  <rect x="539.0" y="296.0" width="28.0" height="0.0" fill="#3b82f6" fill-opacity="1.00"/>
  <rect x="569.0" y="161.7" width="28.0" height="134.3" fill="#3b82f6" fill-opacity="1.00"/>
  <rect x="599.0" y="192.2" width="28.0" height="103.8" fill="#3b82f6" fill-opacity="1.00"/>
  <rect x="629.0" y="64.0" width="28.0" height="232.0" fill="#3b82f6" fill-opacity="1.00"/>
  <rect x="659.0" y="228.8" width="28.0" height="67.2" fill="#3b82f6" fill-opacity="1.00"/>
  <text x="673.0" y="314.0" font-family="ui-sans-serif, system-ui, sans-serif" font-size="10" fill="#475569" text-anchor="middle" font-weight="normal">2.4k</text>
  <line x1="414.7" y1="64.0" x2="414.7" y2="296.0" stroke="#3b82f6" stroke-width="1.5"/>
  <text x="420.7" y="78.0" font-family="ui-sans-serif, system-ui, sans-serif" font-size="10" fill="#3b82f6" text-anchor="start" font-weight="bold">median = 2.1k</text>
  <line x1="665.7" y1="64.0" x2="665.7" y2="296.0" stroke="#ef4444" stroke-width="1.5"/>
  <text x="671.7" y="78.0" font-family="ui-sans-serif, system-ui, sans-serif" font-size="10" fill="#ef4444" text-anchor="start" font-weight="bold">p95 = 2.5k</text>
</svg>