<?xml version="1.0" encoding="UTF-8"?>
<svg xmlns="http://www.w3.org/2000/svg" viewBox="0 0 720 360" width="720" height="360" role="img" aria-labelledby="title">
  <title>USD per investigation · model=gpt-4o (illustrative)</title>
  <desc>Generated by scripts/render_eval_charts.py — AiSOC eval harness.</desc>
  
  <rect width="720" height="360" fill="#ffffff"/>
  <text x="360.0" y="28.0" font-family="ui-sans-serif, system-ui, sans-serif" font-size="16" fill="#0f172a" text-anchor="middle" font-weight="bold">USD per investigation · model=gpt-4o (illustrative)</text>
  <text x="360.0" y="48.0" font-family="ui-sans-serif, system-ui, sans-serif" font-size="11" fill="#475569" text-anchor="middle" font-weight="normal">input $2.50/M, output $10.00/M · public 2025-era list pricing — substitute your own</text>
  <line x1="88.0" y1="296.0" x2="688.0" y2="296.0" stroke="#e2e8f0" stroke-width="1.0"/>
  <text x="80.0" y="300.0" font-family="ui-sans-serif, system-ui, sans-serif" font-size="10" fill="#475569" text-anchor="end" font-weight="normal">0</text>
  <line x1="88.0" y1="238.0" x2="688.0" y2="238.0" stroke="#e2e8f0" stroke-width="1.0"/>
  <text x="80.0" y="242.0" font-family="ui-sans-serif, system-ui, sans-serif" font-size="10" fill="#475569" text-anchor="end" font-weight="normal">19</text>
  <line x1="88.0" y1="180.0" x2="688.0" y2="180.0" stroke="#e2e8f0" stroke-width="1.0"/>
  <text x="80.0" y="184.0" font-family="ui-sans-serif, system-ui, sans-serif" font-size="10" fill="#475569" text-anchor="end" font-weight="normal">38</text>
  <line x1="88.0" y1="122.0" x2="688.0" y2="122.0" stroke="#e2e8f0" stroke-width="1.0"/>
  <text x="80.0" y="126.0" font-family="ui-sans-serif, system-ui, sans-serif" font-size="10" fill="#475569" text-anchor="end" font-weight="normal">57</text>
  <line x1="88.0" y1="64.0" x2="688.0" y2="64.0" stroke="#e2e8f0" stroke-width="1.0"/>
  <text x="80.0" y="68.0" font-family="ui-sans-serif, system-ui, sans-serif" font-size="10" fill="#475569" text-anchor="end" font-weight="normal">76</text>
  <line x1="88.0" y1="296.0" x2="688.0" y2="296.0" stroke="#94a3b8" stroke-width="1.5"/>
  <rect x="89.0" y="250.2" width="28.0" height="45.8" fill="#10b981" fill-opacity="1.00"/>
  <text x="103.0" y="314.0" font-family="ui-sans-serif, system-ui, sans-serif" font-size="10" fill="#475569" text-anchor="middle" font-weight="normal">$0.0102</text>
  <rect x="119.0" y="283.8" width="28.0" height="12.2" fill="#10b981" fill-opacity="1.00"/>
  <rect x="149.0" y="296.0" width="28.0" height="0.0" fill="#10b981" fill-opacity="1.00"/>
  <rect x="179.0" y="296.0" width="28.0" height="0.0" fill="#10b981" fill-opacity="1.00"/>
  <rect x="209.0" y="296.0" width="28.0" height="0.0" fill="#10b981" fill-opacity="1.00"/>
  <rect x="239.0" y="296.0" width="28.0" height="0.0" fill="#10b981" fill-opacity="1.00"/>
  <rect x="269.0" y="296.0" width="28.0" height="0.0" fill="#10b981" fill-opacity="1.00"/>
  <rect x="299.0" y="296.0" width="28.0" height="0.0" fill="#10b981" fill-opacity="1.00"/>
  <rect x="329.0" y="296.0" width="28.0" height="0.0" fill="#10b981" fill-opacity="1.00"/>
  <rect x="359.0" y="140.3" width="28.0" height="155.7" fill="#10b981" fill-opacity="1.00"/>
  <rect x="389.0" y="167.8" width="28.0" height="128.2" fill="#10b981" fill-opacity="1.00"/>
  <text x="403.0" y="314.0" font-family="ui-sans-serif, system-ui, sans-serif" font-size="10" fill="#475569" text-anchor="middle" font-weight="normal">$0.0136</text>
  <rect x="419.0" y="296.0" width="28.0" height="0.0" fill="#10b981" fill-opacity="1.00"/>
  <rect x="449.0" y="296.0" width="28.0" height="0.0" fill="#10b981" fill-opacity="1.00"/>
  <rect x="479.0" y="296.0" width="28.0" height="0.0" fill="#10b981" fill-opacity="1.00"/>
  <rect x="509.0" y="296.0" width="28.0" height="0.0" fill="#10b981" fill-opacity="1.00"/>
  <rect x="539.0" y="296.0" width="28.0" height="0.0" fill="#10b981" fill-opacity="1.00"/>
  <rect x="569.0" y="296.0" width="28.0" height="0.0" fill="#10b981" fill-opacity="1.00"/>
  <rect x="599.0" y="296.0" width="28.0" height="0.0" fill="#10b981" fill-opacity="1.00"/>
  <rect x="629.0" y="259.4" width="28.0" height="36.6" fill="#10b981" fill-opacity="1.00"/>
  <rect x="659.0" y="64.0" width="28.0" height="232.0" fill="#10b981" fill-opacity="1.00"/>
  <text x="673.0" y="314.0" font-family="ui-sans-serif, system-ui, sans-serif" font-size="10" fill="#475569" text-anchor="middle" font-weight="normal">$0.0167</text>
  <line x1="395.9" y1="64.0" x2="395.9" y2="296.0" stroke="#3b82f6" stroke-width="1.5"/>
  <text x="401.9" y="78.0" font-family="ui-sans-serif, system-ui, sans-serif" font-size="10" fill="#3b82f6" text-anchor="start" font-weight="bold">median = $0.0137</text>
  <line x1="681.4" y1="64.0" x2="681.4" y2="296.0" stroke="#ef4444" stroke-width="1.5"/>
  <text x="687.4" y="78.0" font-family="ui-sans-serif, system-ui, sans-serif" font-size="10" fill="#ef4444" text-anchor="start" font-weight="bold">p95 = $0.0169</text>
</svg>